<svg width="282" height="234" viewBox="0 0 282 234" fill="none" xmlns="http://www.w3.org/2000/svg">
<rect width="282" height="234" rx="50" fill="#16171D"/>
<path d="M117.072 81.808C125.947 81.808 132.987 84.496 138.192 89.872C143.483 95.248 146.128 102.715 146.128 112.272V154H124.368V115.216C124.368 110.608 123.131 107.067 120.656 104.592C118.267 102.032 114.939 100.752 110.672 100.752C106.405 100.752 103.035 102.032 100.56 104.592C98.1707 107.067 96.976 110.608 96.976 115.216V154H75.216V115.216C75.216 110.608 73.9787 107.067 71.504 104.592C69.1147 102.032 65.7867 100.752 61.52 100.752C57.2533 100.752 53.8827 102.032 51.408 104.592C49.0187 107.067 47.824 110.608 47.824 115.216V154H25.936V82.576H47.824V91.536C50.0427 88.5493 52.944 86.2027 56.528 84.496C60.112 82.704 64.1653 81.808 68.688 81.808C74.064 81.808 78.8427 82.96 83.024 85.264C87.2907 87.568 90.6187 90.8533 93.008 95.12C95.4827 91.1947 98.8533 87.9947 103.12 85.52C107.387 83.0453 112.037 81.808 117.072 81.808ZM193.564 133.52L209.052 82.576H232.348L207.004 154H179.996L154.652 82.576H178.076L193.564 133.52Z" fill="white"/>
<path d="M249.176 156.024C245.336 156.024 242.179 154.915 239.704 152.696C237.315 150.392 236.12 147.576 236.12 144.248C236.12 140.835 237.315 137.976 239.704 135.672C242.179 133.368 245.336 132.216 249.176 132.216C252.931 132.216 256.003 133.368 258.392 135.672C260.867 137.976 262.104 140.835 262.104 144.248C262.104 147.576 260.867 150.392 258.392 152.696C256.003 154.915 252.931 156.024 249.176 156.024Z" fill="#FF5A5F"/>
</svg>
