<svg xmlns="http://www.w3.org/2000/svg" xmlns:xlink="http://www.w3.org/1999/xlink" width="500" zoomAndPan="magnify" viewBox="0 0 375 374.999991" height="500" preserveAspectRatio="xMidYMid meet" version="1.0"><defs><clipPath id="f45b52b6fa"><path d="M 99.214844 71.15625 L 126.964844 71.15625 L 126.964844 107.15625 L 99.214844 107.15625 Z M 99.214844 71.15625 " clip-rule="nonzero"/></clipPath><clipPath id="2ad79e15c4"><path d="M 188.796875 121.289062 L 216.546875 121.289062 L 216.546875 157.289062 L 188.796875 157.289062 Z M 188.796875 121.289062 " clip-rule="nonzero"/></clipPath><clipPath id="9e3677d103"><path d="M 154.933594 216.546875 L 182.683594 216.546875 L 182.683594 252.546875 L 154.933594 252.546875 Z M 154.933594 216.546875 " clip-rule="nonzero"/></clipPath><clipPath id="e74a5c0ad3"><path d="M 246.398438 267.832031 L 274.148438 267.832031 L 274.148438 303.832031 L 246.398438 303.832031 Z M 246.398438 267.832031 " clip-rule="nonzero"/></clipPath><clipPath id="fd5ad26ed7"><path d="M 327.1875 71.332031 L 359.4375 71.332031 L 359.4375 107.332031 L 327.1875 107.332031 Z M 327.1875 71.332031 " clip-rule="nonzero"/></clipPath><clipPath id="762fd4cc73"><path d="M 15.5625 281.417969 L 34.3125 281.417969 L 34.3125 303.917969 L 15.5625 303.917969 Z M 15.5625 281.417969 " clip-rule="nonzero"/></clipPath></defs><path stroke-linecap="butt" transform="matrix(6.734052, -15.872381, 15.879922, 6.737252, 26.499017, 300.471513)" fill="none" stroke-linejoin="miter" d="M -0.0000387732 0.0000783342 L 12.876066 -0.00000515918 " stroke="#f5767f" stroke-width="1" stroke-opacity="1" stroke-miterlimit="4"/><path stroke-linecap="butt" transform="matrix(6.713713, 15.9138, -15.893502, 6.705149, 113.308737, 95.839652)" fill="none" stroke-linejoin="miter" d="M 0.00000699791 0.0000119729 L 8.511466 -0.0000535002 " stroke="#f5767f" stroke-width="1" stroke-opacity="1" stroke-miterlimit="4"/><path stroke-linecap="butt" transform="matrix(6.609676, -15.935937, 15.933809, 6.608794, 167.381228, 231.077987)" fill="none" stroke-linejoin="miter" d="M 0.0000278122 0.0000879113 L 5.086783 0.0000434292 " stroke="#f5767f" stroke-width="1" stroke-opacity="1" stroke-miterlimit="4"/><path stroke-linecap="butt" transform="matrix(6.845735, 15.859626, -15.837571, 6.836214, 204.439282, 150.080277)" fill="none" stroke-linejoin="miter" d="M 0.0000523315 0.000135155 L 8.292862 -0.0000580877 " stroke="#f5767f" stroke-width="1" stroke-opacity="1" stroke-miterlimit="4"/><path stroke-linecap="butt" transform="matrix(6.855502, -15.839726, 15.830888, 6.851676, 259.342955, 280.697473)" fill="none" stroke-linejoin="miter" d="M -0.0000745531 0.0000824735 L 10.950417 0.0000321109 " stroke="#f5767f" stroke-width="1" stroke-opacity="1" stroke-miterlimit="4"/><path stroke-linecap="butt" transform="matrix(17.249999, 0, 0, 17.249999, 231.471493, 79.780975)" fill="none" stroke-linejoin="miter" d="M 0.0000674174 0.0000159559 L 6.95659 0.0000159559 " stroke="#f5767f" stroke-width="1" stroke-opacity="1" stroke-miterlimit="4"/><g clip-path="url(#f45b52b6fa)"><path fill="#f5767f" d="M 113.089844 71.15625 L 126.960938 107.15625 L 99.214844 107.15625 L 113.089844 71.15625 " fill-opacity="1" fill-rule="nonzero"/></g><g clip-path="url(#2ad79e15c4)"><path fill="#f5767f" d="M 202.671875 121.289062 L 216.546875 157.289062 L 188.796875 157.289062 L 202.671875 121.289062 " fill-opacity="1" fill-rule="nonzero"/></g><g clip-path="url(#9e3677d103)"><path fill="#f5767f" d="M 168.808594 252.546875 L 154.933594 216.546875 L 182.683594 216.546875 L 168.808594 252.546875 " fill-opacity="1" fill-rule="nonzero"/></g><g clip-path="url(#e74a5c0ad3)"><path fill="#f5767f" d="M 260.273438 303.832031 L 246.398438 267.832031 L 274.148438 267.832031 L 260.273438 303.832031 " fill-opacity="1" fill-rule="nonzero"/></g><g clip-path="url(#fd5ad26ed7)"><path fill="#f5767f" d="M 343.3125 107.332031 L 327.191406 71.332031 L 359.433594 71.332031 L 343.3125 107.332031 " fill-opacity="1" fill-rule="nonzero"/></g><path stroke-linecap="butt" transform="matrix(6.762674, -15.76026, 15.852234, 6.80214, 321.102231, 137.72378)" fill="none" stroke-linejoin="miter" d="M 0.0000448406 -0.0000612757 L 3.629952 0.000121886 " stroke="#f5767f" stroke-width="1" stroke-opacity="1" stroke-miterlimit="4"/><g clip-path="url(#762fd4cc73)"><path fill="#f5767f" d="M 24.9375 281.417969 L 34.3125 303.917969 L 15.5625 303.917969 L 24.9375 281.417969 " fill-opacity="1" fill-rule="nonzero"/></g></svg>