<?xml version="1.0" encoding="UTF-8" standalone="no"?>
<svg width="270.933mm" height="15.3458mm"
 xmlns="http://www.w3.org/2000/svg" xmlns:xlink="http://www.w3.org/1999/xlink"  version="1.2" baseProfile="tiny">
<desc>Created by EvoPdf</desc>
<defs>
</defs>
<g fill="none" stroke="black" stroke-width="1" fill-rule="evenodd" stroke-linecap="square" stroke-linejoin="bevel" >

<g fill="#000000" fill-opacity="1" stroke="#000000" stroke-opacity="1" stroke-width="1" stroke-linecap="square" stroke-linejoin="miter" stroke-miterlimit="2" transform="matrix(1,0,0,1,0,0)"
>
</g>

<g fill="#000000" fill-opacity="1" stroke="#000000" stroke-opacity="1" stroke-width="1" stroke-linecap="square" stroke-linejoin="miter" stroke-miterlimit="2" transform="matrix(1,0,0,1,0,0)"
>
</g>

<g fill="#000000" fill-opacity="1" stroke="#000000" stroke-opacity="1" stroke-width="1" stroke-linecap="square" stroke-linejoin="miter" stroke-miterlimit="2" transform="matrix(1,0,0,1,0,0)"
>
</g>

<g fill="#000000" fill-opacity="1" stroke="#000000" stroke-opacity="1" stroke-width="1" stroke-linecap="square" stroke-linejoin="miter" stroke-miterlimit="2" transform="matrix(1,0,0,1,0,0)"
>
</g>

<g fill="#000000" fill-opacity="1" stroke="#000000" stroke-opacity="1" stroke-width="1" stroke-linecap="square" stroke-linejoin="miter" stroke-miterlimit="2" transform="matrix(0.0363636,0,0,0.0363636,8,10.3818)"
>
</g>

<g fill="#000000" fill-opacity="1" stroke="none" transform="matrix(0.0363636,0,0,0.0363636,8,10.3818)"
>
<path vector-effect="none" fill-rule="nonzero" d="M1136.35,522.463 C1136.35,448.388 1043.59,378.179 901.359,334.664 C934.206,189.725 919.623,74.371 855.329,37.426 C839.751,28.701 822.12,24.309 804.268,24.707 L804.268,75.489 C814.75,75.489 823.183,77.586 830.264,81.452 C861.247,99.249 874.711,166.896 864.227,253.971 C861.712,275.403 857.613,297.952 852.58,320.966 C804.951,309.489 756.608,301.192 707.876,296.135 C678.844,256.081 647.171,218.011 613.067,182.178 C687.378,113.133 757.12,75.303 804.547,75.303 L804.547,24.475 C741.839,24.475 659.795,69.154 576.82,146.631 C493.892,69.666 411.804,25.406 349.14,25.406 L349.14,76.188 C396.336,76.188 466.312,113.832 540.62,182.411 C508.708,215.955 476.793,253.972 446.465,296.135 C397.633,301.137 349.203,309.513 301.527,321.199 C296.488,299.385 292.524,277.338 289.646,255.136 C278.931,168.015 292.161,100.367 322.958,82.384 C329.761,78.284 338.659,76.421 349.141,76.421 L349.141,25.639 C330.039,25.639 312.663,29.739 297.66,38.358 C233.6,75.303 219.251,190.378 252.283,334.898 C110.513,378.691 18.22,448.62 18.22,522.463 C18.22,596.54 110.979,666.75 253.215,710.217 C220.37,855.202 234.952,970.557 299.244,1007.46 C314.06,1016.12 331.392,1020.22 350.494,1020.22 C413.202,1020.22 495.246,975.54 578.221,898.063 C661.149,975.076 743.193,1019.29 805.901,1019.29 C823.889,1019.67 841.654,1015.26 857.382,1006.52 C921.442,969.625 935.792,854.551 902.758,710.03 C1044.06,666.515 1136.36,596.306 1136.36,522.462 L1136.35,522.463 M839.583,370.444 C830.729,400.907 820.468,430.941 808.834,460.454 C789.785,423.406 768.872,387.346 746.17,352.414 C778.549,357.214 809.766,363.129 839.627,370.444 L839.582,370.444 L839.583,370.444 M735.221,613.174 C718.157,642.965 699.833,672.017 680.293,700.248 C611.913,706.274 543.137,706.353 474.745,700.482 C435.513,644.443 401.206,585.117 372.201,523.165 C401.162,461.066 435.324,401.53 474.325,345.194 C542.689,339.155 611.449,339.061 679.829,344.916 C698.744,372.028 717.239,401.008 734.991,431.57 C752.32,461.387 768.069,491.671 782.418,522.233 C767.909,553.166 752.165,583.502 735.222,613.175 L735.221,613.174 M808.834,583.543 C821.133,614.058 831.661,644.621 840.281,674.251 C810.464,681.566 778.97,687.715 746.404,692.468 C769.011,657.219 789.845,620.867 808.834,583.543 M577.751,826.738 C556.554,804.84 535.355,780.474 514.392,753.779 C534.89,754.711 555.856,755.41 577.053,755.41 C598.483,755.41 619.683,754.943 640.415,753.779 C619.914,780.474 598.717,804.84 577.751,826.738 M408.169,692.468 C376.756,687.915 345.568,681.916 314.709,674.485 C323.143,645.086 333.624,614.757 345.458,584.473 C354.824,602.645 364.654,620.906 375.369,639.17 C386.084,657.387 396.986,675.183 408.169,692.468 M576.588,218.192 C597.785,240.089 618.984,264.455 639.947,291.15 C619.449,290.218 598.483,289.519 577.286,289.519 C555.856,289.519 534.656,289.986 513.924,291.15 C534.422,264.455 555.622,240.089 576.588,218.192 L576.588,218.192 M407.935,352.461 C385.333,387.631 364.496,423.907 345.505,461.152 C333.543,431.451 323.048,401.177 314.058,370.444 C343.875,363.363 375.369,357.213 407.935,352.461 M201.685,637.771 C120.993,603.388 68.813,558.246 68.813,522.463 C68.813,486.683 120.993,441.307 201.685,407.155 C221.252,398.724 242.683,391.175 264.814,384.141 C277.811,428.774 294.909,475.269 316.061,522.93 C296.09,567.758 279.202,613.893 265.512,661.02 C243.869,654.317 222.568,646.558 201.685,637.77 L201.685,637.771 M324.309,963.429 C293.326,945.724 279.862,877.985 290.344,790.956 C292.862,769.526 296.961,746.929 301.991,723.916 C346.624,734.865 395.403,743.296 446.698,748.794 C475.73,788.846 507.403,826.917 541.507,862.752 C467.196,931.796 397.454,969.626 350.024,969.626 C341.076,969.723 332.243,967.612 324.308,963.477 L324.308,963.43 L324.309,963.429 M864.926,789.793 C875.641,876.867 862.411,944.561 831.617,962.544 C824.814,966.643 815.916,968.46 805.431,968.46 C758.238,968.46 688.262,930.863 613.951,862.237 C647.911,826.555 679.371,788.572 708.109,748.56 C756.941,743.558 805.371,735.185 853.047,723.496 C858.311,746.512 862.363,768.594 864.925,789.793 L864.926,789.793 M952.653,637.771 C933.087,646.205 911.654,653.753 889.525,660.787 C875.593,613.42 858.472,567.052 838.278,521.998 C859.244,474.616 876.061,428.355 888.827,383.908 C910.538,390.632 931.916,398.391 952.887,407.155 C1033.58,441.538 1085.76,486.683 1085.76,522.463 C1085.53,558.245 1033.35,603.622 952.654,637.771 L952.653,637.771"/>
</g>

<g fill="none" stroke="#000000" stroke-opacity="1" stroke-width="1" stroke-linecap="butt" stroke-linejoin="miter" stroke-miterlimit="4" transform="matrix(0.0363636,0,0,0.0363636,8,10.3818)"
>
<path vector-effect="none" fill-rule="nonzero" d="M1136.35,522.463 C1136.35,448.388 1043.59,378.179 901.359,334.664 C934.206,189.725 919.623,74.371 855.329,37.426 C839.751,28.701 822.12,24.309 804.268,24.707 L804.268,75.489 C814.75,75.489 823.183,77.586 830.264,81.452 C861.247,99.249 874.711,166.896 864.227,253.971 C861.712,275.403 857.613,297.952 852.58,320.966 C804.951,309.489 756.608,301.192 707.876,296.135 C678.844,256.081 647.171,218.011 613.067,182.178 C687.378,113.133 757.12,75.303 804.547,75.303 L804.547,24.475 C741.839,24.475 659.795,69.154 576.82,146.631 C493.892,69.666 411.804,25.406 349.14,25.406 L349.14,76.188 C396.336,76.188 466.312,113.832 540.62,182.411 C508.708,215.955 476.793,253.972 446.465,296.135 C397.633,301.137 349.203,309.513 301.527,321.199 C296.488,299.385 292.524,277.338 289.646,255.136 C278.931,168.015 292.161,100.367 322.958,82.384 C329.761,78.284 338.659,76.421 349.141,76.421 L349.141,25.639 C330.039,25.639 312.663,29.739 297.66,38.358 C233.6,75.303 219.251,190.378 252.283,334.898 C110.513,378.691 18.22,448.62 18.22,522.463 C18.22,596.54 110.979,666.75 253.215,710.217 C220.37,855.202 234.952,970.557 299.244,1007.46 C314.06,1016.12 331.392,1020.22 350.494,1020.22 C413.202,1020.22 495.246,975.54 578.221,898.063 C661.149,975.076 743.193,1019.29 805.901,1019.29 C823.889,1019.67 841.654,1015.26 857.382,1006.52 C921.442,969.625 935.792,854.551 902.758,710.03 C1044.06,666.515 1136.36,596.306 1136.36,522.462 L1136.35,522.463 M839.583,370.444 C830.729,400.907 820.468,430.941 808.834,460.454 C789.785,423.406 768.872,387.346 746.17,352.414 C778.549,357.214 809.766,363.129 839.627,370.444 L839.582,370.444 L839.583,370.444 M735.221,613.174 C718.157,642.965 699.833,672.017 680.293,700.248 C611.913,706.274 543.137,706.353 474.745,700.482 C435.513,644.443 401.206,585.117 372.201,523.165 C401.162,461.066 435.324,401.53 474.325,345.194 C542.689,339.155 611.449,339.061 679.829,344.916 C698.744,372.028 717.239,401.008 734.991,431.57 C752.32,461.387 768.069,491.671 782.418,522.233 C767.909,553.166 752.165,583.502 735.222,613.175 L735.221,613.174 M808.834,583.543 C821.133,614.058 831.661,644.621 840.281,674.251 C810.464,681.566 778.97,687.715 746.404,692.468 C769.011,657.219 789.845,620.867 808.834,583.543 M577.751,826.738 C556.554,804.84 535.355,780.474 514.392,753.779 C534.89,754.711 555.856,755.41 577.053,755.41 C598.483,755.41 619.683,754.943 640.415,753.779 C619.914,780.474 598.717,804.84 577.751,826.738 M408.169,692.468 C376.756,687.915 345.568,681.916 314.709,674.485 C323.143,645.086 333.624,614.757 345.458,584.473 C354.824,602.645 364.654,620.906 375.369,639.17 C386.084,657.387 396.986,675.183 408.169,692.468 M576.588,218.192 C597.785,240.089 618.984,264.455 639.947,291.15 C619.449,290.218 598.483,289.519 577.286,289.519 C555.856,289.519 534.656,289.986 513.924,291.15 C534.422,264.455 555.622,240.089 576.588,218.192 L576.588,218.192 M407.935,352.461 C385.333,387.631 364.496,423.907 345.505,461.152 C333.543,431.451 323.048,401.177 314.058,370.444 C343.875,363.363 375.369,357.213 407.935,352.461 M201.685,637.771 C120.993,603.388 68.813,558.246 68.813,522.463 C68.813,486.683 120.993,441.307 201.685,407.155 C221.252,398.724 242.683,391.175 264.814,384.141 C277.811,428.774 294.909,475.269 316.061,522.93 C296.09,567.758 279.202,613.893 265.512,661.02 C243.869,654.317 222.568,646.558 201.685,637.77 L201.685,637.771 M324.309,963.429 C293.326,945.724 279.862,877.985 290.344,790.956 C292.862,769.526 296.961,746.929 301.991,723.916 C346.624,734.865 395.403,743.296 446.698,748.794 C475.73,788.846 507.403,826.917 541.507,862.752 C467.196,931.796 397.454,969.626 350.024,969.626 C341.076,969.723 332.243,967.612 324.308,963.477 L324.308,963.43 L324.309,963.429 M864.926,789.793 C875.641,876.867 862.411,944.561 831.617,962.544 C824.814,966.643 815.916,968.46 805.431,968.46 C758.238,968.46 688.262,930.863 613.951,862.237 C647.911,826.555 679.371,788.572 708.109,748.56 C756.941,743.558 805.371,735.185 853.047,723.496 C858.311,746.512 862.363,768.594 864.925,789.793 L864.926,789.793 M952.653,637.771 C933.087,646.205 911.654,653.753 889.525,660.787 C875.593,613.42 858.472,567.052 838.278,521.998 C859.244,474.616 876.061,428.355 888.827,383.908 C910.538,390.632 931.916,398.391 952.887,407.155 C1033.58,441.538 1085.76,486.683 1085.76,522.463 C1085.53,558.245 1033.35,603.622 952.654,637.771 L952.653,637.771"/>
</g>

<g fill="#000000" fill-opacity="1" stroke="#000000" stroke-opacity="1" stroke-width="1" stroke-linecap="square" stroke-linejoin="miter" stroke-miterlimit="2" transform="matrix(0.0363636,0,0,0.0363636,8,10.3818)"
>
</g>

<g fill="#000000" fill-opacity="1" stroke="none" transform="matrix(0.0363636,0,0,0.0363636,8,10.3818)"
>
<path vector-effect="none" fill-rule="nonzero" d="M577.058,626.641 C604.685,626.641 631.183,615.666 650.718,596.128 C670.255,576.593 681.231,550.095 681.231,522.468 C681.231,494.838 670.256,468.343 650.718,448.806 C631.183,429.271 604.685,418.296 577.058,418.296 C549.428,418.296 522.933,429.271 503.396,448.806 C483.861,468.343 472.886,494.839 472.886,522.468 C472.886,550.095 483.861,576.593 503.396,596.128 C522.933,615.665 549.429,626.641 577.058,626.641 L577.058,626.641"/>
</g>

<g fill="none" stroke="#000000" stroke-opacity="1" stroke-width="1" stroke-linecap="butt" stroke-linejoin="miter" stroke-miterlimit="4" transform="matrix(0.0363636,0,0,0.0363636,8,10.3818)"
>
<path vector-effect="none" fill-rule="nonzero" d="M577.058,626.641 C604.685,626.641 631.183,615.666 650.718,596.128 C670.255,576.593 681.231,550.095 681.231,522.468 C681.231,494.838 670.256,468.343 650.718,448.806 C631.183,429.271 604.685,418.296 577.058,418.296 C549.428,418.296 522.933,429.271 503.396,448.806 C483.861,468.343 472.886,494.839 472.886,522.468 C472.886,550.095 483.861,576.593 503.396,596.128 C522.933,615.665 549.429,626.641 577.058,626.641 L577.058,626.641"/>
</g>

<g fill="#000000" fill-opacity="1" stroke="#000000" stroke-opacity="1" stroke-width="1" stroke-linecap="square" stroke-linejoin="miter" stroke-miterlimit="2" transform="matrix(0.0363636,0,0,0.0363636,8,10.3818)"
>
</g>

<g fill="#000000" fill-opacity="1" stroke="#000000" stroke-opacity="1" stroke-width="1" stroke-linecap="square" stroke-linejoin="miter" stroke-miterlimit="2" transform="matrix(0.0363636,0,0,0.0363636,8,10.3818)"
>
</g>

<g fill="#000000" fill-opacity="1" stroke="#000000" stroke-opacity="1" stroke-width="1" stroke-linecap="square" stroke-linejoin="miter" stroke-miterlimit="2" transform="matrix(1,0,0,1,0,0)"
>
</g>

<g fill="#000000" fill-opacity="1" stroke="#000000" stroke-opacity="1" stroke-width="1" stroke-linecap="square" stroke-linejoin="miter" stroke-miterlimit="2" transform="matrix(1,0,0,1,0,0)"
>
</g>

<g fill="#000000" fill-opacity="1" stroke="#000000" stroke-opacity="1" stroke-width="1" stroke-linecap="square" stroke-linejoin="miter" stroke-miterlimit="2" transform="matrix(1,0,0,1,0,0)"
>
</g>

<g fill="#000000" fill-opacity="1" stroke="#000000" stroke-opacity="1" stroke-width="1" stroke-linecap="square" stroke-linejoin="miter" stroke-miterlimit="2" transform="matrix(1,0,0,1,0,0)"
>
</g>

<g fill="#000000" fill-opacity="1" stroke="#000000" stroke-opacity="1" stroke-width="1" stroke-linecap="square" stroke-linejoin="miter" stroke-miterlimit="2" transform="matrix(0.0363636,0,0,0.0363636,8,10.3818)"
>
</g>

<g fill="#000000" fill-opacity="1" stroke="#000000" stroke-opacity="1" stroke-width="1" stroke-linecap="square" stroke-linejoin="miter" stroke-miterlimit="2" transform="matrix(1,0,0,1,0,0)"
>
</g>

<g fill="#000000" fill-opacity="1" stroke="#000000" stroke-opacity="1" stroke-width="1" stroke-linecap="square" stroke-linejoin="miter" stroke-miterlimit="2" transform="matrix(1,0,0,1,0,0)"
>
</g>

<g fill="#000000" fill-opacity="1" stroke="#000000" stroke-opacity="1" stroke-width="1" stroke-linecap="square" stroke-linejoin="miter" stroke-miterlimit="2" transform="matrix(1,0,0,1,0,0)"
>
</g>

<g fill="#000000" fill-opacity="1" stroke="#000000" stroke-opacity="1" stroke-width="1" stroke-linecap="square" stroke-linejoin="miter" stroke-miterlimit="2" transform="matrix(1,0,0,1,0,0)"
>
</g>

<g fill="#000000" fill-opacity="1" stroke="#000000" stroke-opacity="1" stroke-width="1" stroke-linecap="square" stroke-linejoin="miter" stroke-miterlimit="2" transform="matrix(1,0,0,1,0,0)"
>
</g>

<g fill="#000000" fill-opacity="1" stroke="#000000" stroke-opacity="1" stroke-width="1" stroke-linecap="square" stroke-linejoin="miter" stroke-miterlimit="2" transform="matrix(1,0,0,1,0,0)"
>
</g>
</g>
</svg>
