<?xml version="1.0" encoding="UTF-8" standalone="no"?>
<svg width="270.933mm" height="15.3458mm"
 xmlns="http://www.w3.org/2000/svg" xmlns:xlink="http://www.w3.org/1999/xlink"  version="1.2" baseProfile="tiny">
<desc>Created by EvoPdf</desc>
<defs>
</defs>
<g fill="none" stroke="black" stroke-width="1" fill-rule="evenodd" stroke-linecap="square" stroke-linejoin="bevel" >

<g fill="#000000" fill-opacity="1" stroke="#000000" stroke-opacity="1" stroke-width="1" stroke-linecap="square" stroke-linejoin="miter" stroke-miterlimit="2" transform="matrix(1,0,0,1,0,0)"
>
</g>

<g fill="#000000" fill-opacity="1" stroke="#000000" stroke-opacity="1" stroke-width="1" stroke-linecap="square" stroke-linejoin="miter" stroke-miterlimit="2" transform="matrix(1,0,0,1,0,0)"
>
</g>

<g fill="#000000" fill-opacity="1" stroke="#000000" stroke-opacity="1" stroke-width="1" stroke-linecap="square" stroke-linejoin="miter" stroke-miterlimit="2" transform="matrix(1,0,0,1,0,0)"
>
</g>

<g fill="#000000" fill-opacity="1" stroke="#000000" stroke-opacity="1" stroke-width="1" stroke-linecap="square" stroke-linejoin="miter" stroke-miterlimit="2" transform="matrix(1,0,0,1,0,0)"
>
</g>

<g fill="#000000" fill-opacity="1" stroke="#000000" stroke-opacity="1" stroke-width="1" stroke-linecap="square" stroke-linejoin="miter" stroke-miterlimit="2" transform="matrix(0.0410156,0,0,0.0410156,8,8)"
>
</g>

<g fill="#000000" fill-opacity="1" stroke="none" transform="matrix(0.0410156,0,0,0.0410156,8,8)"
>
<path vector-effect="none" fill-rule="nonzero" d="M23.488,21.291 L1023.67,21.291 L1023.67,1021.48 L23.488,1021.48 L23.488,21.291 L23.488,21.291 M788.089,859.779 C741.704,859.779 715.492,835.608 695.362,802.685 L618.974,847.069 C646.562,901.579 702.947,943.17 790.256,943.17 C879.523,943.17 945.992,896.828 945.992,812.186 C945.992,733.714 900.9,698.832 821.052,664.535 L797.548,654.49 C757.207,636.987 739.747,625.611 739.747,597.396 C739.747,574.601 757.25,557.139 784.755,557.139 C811.717,557.139 829.097,568.517 845.223,597.396 L918.403,550.43 C887.44,495.96 844.515,475.166 784.754,475.166 C700.822,475.166 647.102,528.843 647.102,599.356 C647.102,675.827 692.11,712.044 759.956,740.923 L783.46,751.008 C826.344,769.761 851.889,781.18 851.889,813.396 C851.889,840.318 827.011,859.778 788.087,859.778 L788.089,859.779 M423.855,859.155 C391.556,859.155 378.096,837.068 363.344,810.813 L286.83,857.155 C309.001,904.08 352.592,943.004 427.813,943.004 C511.121,943.004 568.172,898.703 568.172,801.394 L568.172,480.501 L474.197,480.501 L474.197,800.144 C474.197,847.11 454.693,859.155 423.811,859.155 L423.854,859.155 L423.855,859.155"/>
</g>

<g fill="none" stroke="#000000" stroke-opacity="1" stroke-width="1" stroke-linecap="butt" stroke-linejoin="miter" stroke-miterlimit="4" transform="matrix(0.0410156,0,0,0.0410156,8,8)"
>
<path vector-effect="none" fill-rule="nonzero" d="M23.488,21.291 L1023.67,21.291 L1023.67,1021.48 L23.488,1021.48 L23.488,21.291 L23.488,21.291 M788.089,859.779 C741.704,859.779 715.492,835.608 695.362,802.685 L618.974,847.069 C646.562,901.579 702.947,943.17 790.256,943.17 C879.523,943.17 945.992,896.828 945.992,812.186 C945.992,733.714 900.9,698.832 821.052,664.535 L797.548,654.49 C757.207,636.987 739.747,625.611 739.747,597.396 C739.747,574.601 757.25,557.139 784.755,557.139 C811.717,557.139 829.097,568.517 845.223,597.396 L918.403,550.43 C887.44,495.96 844.515,475.166 784.754,475.166 C700.822,475.166 647.102,528.843 647.102,599.356 C647.102,675.827 692.11,712.044 759.956,740.923 L783.46,751.008 C826.344,769.761 851.889,781.18 851.889,813.396 C851.889,840.318 827.011,859.778 788.087,859.778 L788.089,859.779 M423.855,859.155 C391.556,859.155 378.096,837.068 363.344,810.813 L286.83,857.155 C309.001,904.08 352.592,943.004 427.813,943.004 C511.121,943.004 568.172,898.703 568.172,801.394 L568.172,480.501 L474.197,480.501 L474.197,800.144 C474.197,847.11 454.693,859.155 423.811,859.155 L423.854,859.155 L423.855,859.155"/>
</g>

<g fill="#000000" fill-opacity="1" stroke="#000000" stroke-opacity="1" stroke-width="1" stroke-linecap="square" stroke-linejoin="miter" stroke-miterlimit="2" transform="matrix(0.0410156,0,0,0.0410156,8,8)"
>
</g>

<g fill="#000000" fill-opacity="1" stroke="#000000" stroke-opacity="1" stroke-width="1" stroke-linecap="square" stroke-linejoin="miter" stroke-miterlimit="2" transform="matrix(0.0410156,0,0,0.0410156,8,8)"
>
</g>

<g fill="#000000" fill-opacity="1" stroke="#000000" stroke-opacity="1" stroke-width="1" stroke-linecap="square" stroke-linejoin="miter" stroke-miterlimit="2" transform="matrix(1,0,0,1,0,0)"
>
</g>

<g fill="#000000" fill-opacity="1" stroke="#000000" stroke-opacity="1" stroke-width="1" stroke-linecap="square" stroke-linejoin="miter" stroke-miterlimit="2" transform="matrix(1,0,0,1,0,0)"
>
</g>

<g fill="#000000" fill-opacity="1" stroke="#000000" stroke-opacity="1" stroke-width="1" stroke-linecap="square" stroke-linejoin="miter" stroke-miterlimit="2" transform="matrix(1,0,0,1,0,0)"
>
</g>

<g fill="#000000" fill-opacity="1" stroke="#000000" stroke-opacity="1" stroke-width="1" stroke-linecap="square" stroke-linejoin="miter" stroke-miterlimit="2" transform="matrix(1,0,0,1,0,0)"
>
</g>

<g fill="#000000" fill-opacity="1" stroke="#000000" stroke-opacity="1" stroke-width="1" stroke-linecap="square" stroke-linejoin="miter" stroke-miterlimit="2" transform="matrix(0.0410156,0,0,0.0410156,8,8)"
>
</g>

<g fill="#000000" fill-opacity="1" stroke="#000000" stroke-opacity="1" stroke-width="1" stroke-linecap="square" stroke-linejoin="miter" stroke-miterlimit="2" transform="matrix(1,0,0,1,0,0)"
>
</g>

<g fill="#000000" fill-opacity="1" stroke="#000000" stroke-opacity="1" stroke-width="1" stroke-linecap="square" stroke-linejoin="miter" stroke-miterlimit="2" transform="matrix(1,0,0,1,0,0)"
>
</g>

<g fill="#000000" fill-opacity="1" stroke="#000000" stroke-opacity="1" stroke-width="1" stroke-linecap="square" stroke-linejoin="miter" stroke-miterlimit="2" transform="matrix(1,0,0,1,0,0)"
>
</g>

<g fill="#000000" fill-opacity="1" stroke="#000000" stroke-opacity="1" stroke-width="1" stroke-linecap="square" stroke-linejoin="miter" stroke-miterlimit="2" transform="matrix(1,0,0,1,0,0)"
>
</g>

<g fill="#000000" fill-opacity="1" stroke="#000000" stroke-opacity="1" stroke-width="1" stroke-linecap="square" stroke-linejoin="miter" stroke-miterlimit="2" transform="matrix(1,0,0,1,0,0)"
>
</g>

<g fill="#000000" fill-opacity="1" stroke="#000000" stroke-opacity="1" stroke-width="1" stroke-linecap="square" stroke-linejoin="miter" stroke-miterlimit="2" transform="matrix(1,0,0,1,0,0)"
>
</g>
</g>
</svg>
