<?xml version="1.0" encoding="UTF-8" standalone="no"?>
<svg width="270.933mm" height="15.3458mm"
 xmlns="http://www.w3.org/2000/svg" xmlns:xlink="http://www.w3.org/1999/xlink"  version="1.2" baseProfile="tiny">
<desc>Created by EvoPdf</desc>
<defs>
</defs>
<g fill="none" stroke="black" stroke-width="1" fill-rule="evenodd" stroke-linecap="square" stroke-linejoin="bevel" >

<g fill="#000000" fill-opacity="1" stroke="#000000" stroke-opacity="1" stroke-width="1" stroke-linecap="square" stroke-linejoin="miter" stroke-miterlimit="2" transform="matrix(1,0,0,1,0,0)"
>
</g>

<g fill="#000000" fill-opacity="1" stroke="#000000" stroke-opacity="1" stroke-width="1" stroke-linecap="square" stroke-linejoin="miter" stroke-miterlimit="2" transform="matrix(1,0,0,1,0,0)"
>
</g>

<g fill="#000000" fill-opacity="1" stroke="#000000" stroke-opacity="1" stroke-width="1" stroke-linecap="square" stroke-linejoin="miter" stroke-miterlimit="2" transform="matrix(1,0,0,1,0,0)"
>
</g>

<g fill="#000000" fill-opacity="1" stroke="#000000" stroke-opacity="1" stroke-width="1" stroke-linecap="square" stroke-linejoin="miter" stroke-miterlimit="2" transform="matrix(1,0,0,1,0,0)"
>
</g>

<g fill="#000000" fill-opacity="1" stroke="#000000" stroke-opacity="1" stroke-width="1" stroke-linecap="square" stroke-linejoin="miter" stroke-miterlimit="2" transform="matrix(0.0410156,0,0,0.0410156,10.4404,8)"
>
</g>

<g fill="#000000" fill-opacity="1" stroke="none" transform="matrix(0.0410156,0,0,0.0410156,10.4404,8)"
>
<path vector-effect="none" fill-rule="nonzero" d="M452.065,1021.48 C438.391,1021.48 425.61,1017.77 413.675,1011.36 L292.391,938.832 C274.242,928.663 283.342,924.958 288.812,923.103 C313.476,914.84 318.051,913.037 343.56,898.41 C346.346,896.557 349.975,897.407 352.762,899.26 L445.751,955.361 C449.43,957.164 454.005,957.164 456.741,955.361 L820.694,743.136 C824.373,741.333 826.164,737.628 826.164,733.017 L826.164,309.372 C826.164,304.814 824.373,301.106 820.694,299.303 L456.741,87.981 C453.109,86.128 448.535,86.128 445.751,87.981 L81.698,299.253 C78.068,301.056 76.228,305.716 76.228,309.322 L76.228,732.917 C76.228,736.575 78.068,741.233 81.698,743.036 L181.152,800.987 C234.957,828.437 268.772,796.229 268.772,764.173 L268.772,346.136 C268.772,340.628 273.297,335.067 279.712,335.067 L326.256,335.067 C331.626,335.067 337.196,339.675 337.196,346.136 L337.196,764.223 C337.196,836.801 298.01,879.125 229.586,879.125 C208.601,879.125 192.191,879.125 145.646,856.085 L49.921,801.037 C38.258,794.21 28.578,784.415 21.85,772.636 C15.122,760.857 11.581,747.508 11.581,733.919 L11.581,310.274 C11.581,282.724 26.151,256.978 49.921,243.204 L413.724,30.9801 C425.536,24.6181 438.722,21.2891 452.114,21.2891 C465.506,21.2891 478.693,24.6171 490.502,30.9801 L854.358,243.204 C878.177,256.928 892.696,282.723 892.696,310.274 L892.696,733.919 C892.696,761.417 878.127,787.162 854.358,801.036 L490.502,1013.21 C478.519,1018.72 464.845,1021.47 452.064,1021.47 L452.065,1021.48 M564.25,730.164 C404.625,730.164 371.805,656.634 371.805,594.224 C371.805,588.713 376.38,583.153 382.745,583.153 L430.185,583.153 C435.655,583.153 440.18,586.811 440.18,592.369 C447.491,641.007 468.426,664.947 565.194,664.947 C641.775,664.947 674.695,647.418 674.695,606.093 C674.695,582.203 665.496,564.771 546.05,552.85 C446.646,542.834 384.637,520.644 384.637,440.753 C384.637,366.372 446.646,322.243 550.675,322.243 C667.385,322.243 724.869,362.765 732.13,450.872 C732.042,453.844 731.073,456.723 729.344,459.135 C727.506,460.938 724.819,462.793 722.086,462.793 L674.696,462.793 C672.353,462.741 670.093,461.907 668.273,460.419 C666.456,458.933 665.18,456.875 664.651,454.577 C653.661,403.889 625.415,387.46 550.675,387.46 C466.686,387.46 456.641,416.861 456.641,438.901 C456.641,465.496 468.427,473.762 581.655,488.489 C693.84,503.163 746.75,524.3 746.75,603.391 C745.755,684.282 680.166,730.165 564.252,730.165 L564.25,730.164"/>
</g>

<g fill="none" stroke="#000000" stroke-opacity="1" stroke-width="1" stroke-linecap="butt" stroke-linejoin="miter" stroke-miterlimit="4" transform="matrix(0.0410156,0,0,0.0410156,10.4404,8)"
>
<path vector-effect="none" fill-rule="nonzero" d="M452.065,1021.48 C438.391,1021.48 425.61,1017.77 413.675,1011.36 L292.391,938.832 C274.242,928.663 283.342,924.958 288.812,923.103 C313.476,914.84 318.051,913.037 343.56,898.41 C346.346,896.557 349.975,897.407 352.762,899.26 L445.751,955.361 C449.43,957.164 454.005,957.164 456.741,955.361 L820.694,743.136 C824.373,741.333 826.164,737.628 826.164,733.017 L826.164,309.372 C826.164,304.814 824.373,301.106 820.694,299.303 L456.741,87.981 C453.109,86.128 448.535,86.128 445.751,87.981 L81.698,299.253 C78.068,301.056 76.228,305.716 76.228,309.322 L76.228,732.917 C76.228,736.575 78.068,741.233 81.698,743.036 L181.152,800.987 C234.957,828.437 268.772,796.229 268.772,764.173 L268.772,346.136 C268.772,340.628 273.297,335.067 279.712,335.067 L326.256,335.067 C331.626,335.067 337.196,339.675 337.196,346.136 L337.196,764.223 C337.196,836.801 298.01,879.125 229.586,879.125 C208.601,879.125 192.191,879.125 145.646,856.085 L49.921,801.037 C38.258,794.21 28.578,784.415 21.85,772.636 C15.122,760.857 11.581,747.508 11.581,733.919 L11.581,310.274 C11.581,282.724 26.151,256.978 49.921,243.204 L413.724,30.9801 C425.536,24.6181 438.722,21.2891 452.114,21.2891 C465.506,21.2891 478.693,24.6171 490.502,30.9801 L854.358,243.204 C878.177,256.928 892.696,282.723 892.696,310.274 L892.696,733.919 C892.696,761.417 878.127,787.162 854.358,801.036 L490.502,1013.21 C478.519,1018.72 464.845,1021.47 452.064,1021.47 L452.065,1021.48 M564.25,730.164 C404.625,730.164 371.805,656.634 371.805,594.224 C371.805,588.713 376.38,583.153 382.745,583.153 L430.185,583.153 C435.655,583.153 440.18,586.811 440.18,592.369 C447.491,641.007 468.426,664.947 565.194,664.947 C641.775,664.947 674.695,647.418 674.695,606.093 C674.695,582.203 665.496,564.771 546.05,552.85 C446.646,542.834 384.637,520.644 384.637,440.753 C384.637,366.372 446.646,322.243 550.675,322.243 C667.385,322.243 724.869,362.765 732.13,450.872 C732.042,453.844 731.073,456.723 729.344,459.135 C727.506,460.938 724.819,462.793 722.086,462.793 L674.696,462.793 C672.353,462.741 670.093,461.907 668.273,460.419 C666.456,458.933 665.18,456.875 664.651,454.577 C653.661,403.889 625.415,387.46 550.675,387.46 C466.686,387.46 456.641,416.861 456.641,438.901 C456.641,465.496 468.427,473.762 581.655,488.489 C693.84,503.163 746.75,524.3 746.75,603.391 C745.755,684.282 680.166,730.165 564.252,730.165 L564.25,730.164"/>
</g>

<g fill="#000000" fill-opacity="1" stroke="#000000" stroke-opacity="1" stroke-width="1" stroke-linecap="square" stroke-linejoin="miter" stroke-miterlimit="2" transform="matrix(0.0410156,0,0,0.0410156,10.4404,8)"
>
</g>

<g fill="#000000" fill-opacity="1" stroke="#000000" stroke-opacity="1" stroke-width="1" stroke-linecap="square" stroke-linejoin="miter" stroke-miterlimit="2" transform="matrix(0.0410156,0,0,0.0410156,10.4404,8)"
>
</g>

<g fill="#000000" fill-opacity="1" stroke="#000000" stroke-opacity="1" stroke-width="1" stroke-linecap="square" stroke-linejoin="miter" stroke-miterlimit="2" transform="matrix(1,0,0,1,0,0)"
>
</g>

<g fill="#000000" fill-opacity="1" stroke="#000000" stroke-opacity="1" stroke-width="1" stroke-linecap="square" stroke-linejoin="miter" stroke-miterlimit="2" transform="matrix(1,0,0,1,0,0)"
>
</g>

<g fill="#000000" fill-opacity="1" stroke="#000000" stroke-opacity="1" stroke-width="1" stroke-linecap="square" stroke-linejoin="miter" stroke-miterlimit="2" transform="matrix(1,0,0,1,0,0)"
>
</g>

<g fill="#000000" fill-opacity="1" stroke="#000000" stroke-opacity="1" stroke-width="1" stroke-linecap="square" stroke-linejoin="miter" stroke-miterlimit="2" transform="matrix(1,0,0,1,0,0)"
>
</g>

<g fill="#000000" fill-opacity="1" stroke="#000000" stroke-opacity="1" stroke-width="1" stroke-linecap="square" stroke-linejoin="miter" stroke-miterlimit="2" transform="matrix(0.0410156,0,0,0.0410156,10.4404,8)"
>
</g>

<g fill="#000000" fill-opacity="1" stroke="#000000" stroke-opacity="1" stroke-width="1" stroke-linecap="square" stroke-linejoin="miter" stroke-miterlimit="2" transform="matrix(1,0,0,1,0,0)"
>
</g>

<g fill="#000000" fill-opacity="1" stroke="#000000" stroke-opacity="1" stroke-width="1" stroke-linecap="square" stroke-linejoin="miter" stroke-miterlimit="2" transform="matrix(1,0,0,1,0,0)"
>
</g>

<g fill="#000000" fill-opacity="1" stroke="#000000" stroke-opacity="1" stroke-width="1" stroke-linecap="square" stroke-linejoin="miter" stroke-miterlimit="2" transform="matrix(1,0,0,1,0,0)"
>
</g>

<g fill="#000000" fill-opacity="1" stroke="#000000" stroke-opacity="1" stroke-width="1" stroke-linecap="square" stroke-linejoin="miter" stroke-miterlimit="2" transform="matrix(1,0,0,1,0,0)"
>
</g>

<g fill="#000000" fill-opacity="1" stroke="#000000" stroke-opacity="1" stroke-width="1" stroke-linecap="square" stroke-linejoin="miter" stroke-miterlimit="2" transform="matrix(1,0,0,1,0,0)"
>
</g>

<g fill="#000000" fill-opacity="1" stroke="#000000" stroke-opacity="1" stroke-width="1" stroke-linecap="square" stroke-linejoin="miter" stroke-miterlimit="2" transform="matrix(1,0,0,1,0,0)"
>
</g>
</g>
</svg>
