<?xml version="1.0" encoding="UTF-8" standalone="no"?>
<svg width="270.933mm" height="15.3458mm"
 xmlns="http://www.w3.org/2000/svg" xmlns:xlink="http://www.w3.org/1999/xlink"  version="1.2" baseProfile="tiny">
<desc>Created by EvoPdf</desc>
<defs>
</defs>
<g fill="none" stroke="black" stroke-width="1" fill-rule="evenodd" stroke-linecap="square" stroke-linejoin="bevel" >

<g fill="#000000" fill-opacity="1" stroke="#000000" stroke-opacity="1" stroke-width="1" stroke-linecap="square" stroke-linejoin="miter" stroke-miterlimit="2" transform="matrix(1,0,0,1,0,0)"
>
</g>

<g fill="#000000" fill-opacity="1" stroke="#000000" stroke-opacity="1" stroke-width="1" stroke-linecap="square" stroke-linejoin="miter" stroke-miterlimit="2" transform="matrix(1,0,0,1,0,0)"
>
</g>

<g fill="#000000" fill-opacity="1" stroke="#000000" stroke-opacity="1" stroke-width="1" stroke-linecap="square" stroke-linejoin="miter" stroke-miterlimit="2" transform="matrix(1,0,0,1,0,0)"
>
</g>

<g fill="#000000" fill-opacity="1" stroke="#000000" stroke-opacity="1" stroke-width="1" stroke-linecap="square" stroke-linejoin="miter" stroke-miterlimit="2" transform="matrix(1,0,0,1,0,0)"
>
</g>

<g fill="#000000" fill-opacity="1" stroke="#000000" stroke-opacity="1" stroke-width="1" stroke-linecap="square" stroke-linejoin="miter" stroke-miterlimit="2" transform="matrix(0.0410156,0,0,0.0410156,8,8)"
>
</g>

<g fill="#000000" fill-opacity="1" stroke="none" transform="matrix(0.0410156,0,0,0.0410156,8,8)"
>
<path vector-effect="none" fill-rule="nonzero" d="M1011.76,997.133 L990.956,976.958 C981.037,963.586 969.95,951.156 957.828,939.82 L957.623,939.653 C945.395,928.341 932.687,917.587 919.502,907.39 C908.936,899.998 894.414,891.092 875.932,880.671 C860.936,873.896 848.982,861.639 842.435,846.324 L842.273,845.907 L840.306,844.907 C848.989,844.031 856.931,842.404 864.549,840.113 L863.606,840.363 L886.948,833.819 C896.612,830.733 907.79,828.732 919.378,828.275 L919.623,828.275 C931.825,827.775 943.332,825.772 954.308,822.481 L953.284,822.731 C958.58,821.397 964.026,819.883 969.623,818.187 C975.22,816.491 980.008,814.977 983.995,813.643 L983.995,806.599 C980.037,800.567 975.246,793.678 969.623,785.924 C964.405,778.67 958.311,772.114 951.482,766.416 L951.277,766.249 C934.107,750.799 916.32,735.848 897.922,721.398 C880.674,707.755 862.756,695.012 844.238,683.217 L841.454,681.548 C830.773,674.444 819.464,668.372 807.672,663.416 L806.279,662.916 C794.048,657.86 781.996,652.316 770.122,646.284 C765.843,644.153 761.354,642.488 756.731,641.324 L756.281,641.241 C751.661,640.307 747.482,637.826 744.405,634.197 L744.365,634.157 C738.554,626.306 733.677,617.785 729.829,608.771 L729.5,607.938 C725.542,598.517 721.256,589.473 716.643,580.802 C706.732,561.294 697.151,541.466 687.897,521.32 C678.643,501.174 669.756,480.998 661.24,460.797 C655.315,447.347 649.869,433.911 644.901,420.49 C639.876,406.807 633.554,393.656 626.024,381.223 L626.555,382.183 C610.238,353.704 592.027,326.394 572.052,300.442 L573.2,302.026 C554.923,278.46 534.952,256.308 513.456,235.749 L513.13,235.457 C491.988,215.267 469.672,196.392 446.301,178.935 L444.293,177.476 C419.834,159.385 393.081,141.573 364.035,124.038 C351.687,116.708 338.385,111.192 324.518,107.657 L323.454,107.407 L277.879,95.819 L252.122,93.818 C243.551,93.151 234.965,92.818 226.366,92.818 C220.567,89.729 215.231,85.813 210.519,81.188 C205.965,76.778 201.136,72.671 196.064,68.891 L195.654,68.599 C169.055,52.974 141.04,39.993 111.996,29.833 L108.515,28.749 C101.292,24.543 93.2321,22.044 84.9321,21.437 C76.6321,20.83 68.3041,22.133 60.5651,25.247 L60.9341,25.122 C53.3131,28.164 46.4451,32.879 40.8181,38.931 C35.1911,44.983 30.9441,52.223 28.3791,60.136 L28.2561,60.553 C23.9111,71.175 22.4991,82.804 24.1731,94.183 C25.8471,105.562 30.5441,116.26 37.7561,125.12 L37.6741,124.995 C52.5251,145.142 63.9081,160.982 71.8251,172.514 C77.7491,180.601 83.8641,189.007 90.1701,197.732 C95.9441,205.568 101.062,214.53 105.198,223.993 L105.526,224.868 C107.819,229.828 109.826,235.747 111.3,241.834 L111.423,242.501 C112.733,248.223 114.385,254.448 116.378,261.174 C122.302,276.624 127.912,292.466 133.208,308.695 C138.982,326.41 145.37,341.415 152.781,355.713 L152.003,354.046 C155.961,361.438 159.934,368.663 163.919,375.721 C167.904,382.779 172.191,389.669 176.777,396.394 C179.378,400.39 182.732,403.819 186.646,406.482 L186.769,406.565 C188.82,408.063 190.509,410.016 191.708,412.276 C192.907,414.538 193.585,417.046 193.69,419.613 L193.69,419.656 C188.859,426.96 185.812,435.335 184.804,444.082 L184.763,444.332 C183.478,454.15 181.382,463.84 178.498,473.302 L178.826,472.052 C169.193,502.072 164.341,533.466 164.453,565.048 C164.453,575.8 164.985,586.388 166.091,596.852 L165.968,595.559 C168.425,635.493 180.259,672.173 199.218,703.936 L198.645,702.893 C206.712,715.191 215.352,725.902 224.893,735.699 C230.436,742.045 237.903,746.325 246.108,747.858 C254.314,749.392 262.787,748.089 270.182,744.16 L269.977,744.243 C277.074,741.697 283.265,737.061 287.764,730.921 C292.265,724.782 294.868,717.421 295.244,709.769 L295.244,709.688 C297.209,689.93 300.157,672.255 304.212,654.999 L303.679,657.79 C304.717,654.98 305.244,651.998 305.234,648.996 L305.153,647.119 L305.153,647.202 C304.827,644.173 306.641,641.313 310.599,638.617 L310.599,640.617 C314.557,650.038 318.679,659.444 322.966,668.837 C327.253,678.23 331.701,687.636 336.316,697.057 C348.394,715.772 361.211,732.114 375.297,747.159 L375.176,747.035 C389.188,762.438 404.646,776.412 421.325,788.759 L422.225,789.385 C430.908,796.136 438.523,803.43 445.403,811.394 L445.565,811.561 C452.035,819.312 459.775,825.69 468.498,830.484 L468.908,830.694 L468.908,829.694 L470.873,829.694 C469.32,826.153 466.751,823.174 463.503,821.147 L463.422,821.107 C460.417,819.421 457.53,817.528 454.78,815.437 L454.985,815.563 C449.062,809.533 442.947,802.808 436.641,795.388 C430.335,787.97 424.56,780.911 419.319,774.213 C405.452,754.707 392.226,734.322 379.64,713.064 C367.057,691.805 355.166,670.201 343.974,648.247 C338.678,637.493 333.56,626.405 328.619,614.984 C323.678,603.563 318.886,592.475 314.245,581.721 C312.145,577.351 310.813,572.638 310.316,567.799 L310.316,567.589 C310.204,565.3 309.513,563.079 308.306,561.143 C307.101,559.207 305.422,557.623 303.436,556.545 L303.353,556.502 C298.666,564.706 293.061,572.331 286.648,579.221 L286.688,579.178 C280.111,586.234 274.814,594.419 271.045,603.354 L270.84,603.897 C264.713,619.29 260.729,635.481 259.007,651.999 L258.926,652.792 C256.959,670.605 254.98,688.918 252.987,707.731 L251.022,708.731 L250.038,709.731 C244.913,708.686 240.081,706.483 235.902,703.287 C231.723,700.091 228.297,695.983 225.88,691.266 L225.798,691.056 C220.829,681.302 216.38,671.717 212.449,662.296 C201.722,633.726 195.864,603.502 195.128,572.927 L195.128,572.551 C193.001,539.881 196.975,507.094 206.839,475.931 L206.348,477.765 C208.313,470.373 212.599,457.923 219.206,440.415 C225.812,422.909 227.137,410.807 223.178,404.111 C221.225,397.481 217.461,391.554 212.327,387.02 L212.286,386.98 C207.392,382.665 202.807,377.997 198.568,373.015 L198.445,372.848 C193.832,366.068 189.382,358.843 185.096,351.173 C180.81,343.503 177.016,335.944 173.712,328.497 C166.087,310.129 159.604,291.295 154.302,272.098 L153.401,268.388 C147.574,246.941 140.099,225.993 131.043,205.739 L132.108,208.407 C127.871,198.509 122.512,189.15 116.138,180.521 L116.384,180.854 C109.723,171.795 103.772,163.222 98.5302,155.135 C91.8691,146.409 85.2632,138.003 78.7112,129.917 C71.8841,121.499 66.0312,112.31 61.2672,102.531 L60.8982,101.697 C58.8032,97.3429 57.1692,92.7729 56.0252,88.0669 L55.9431,87.6089 C55.2402,85.2409 55.0551,82.7449 55.4011,80.2959 C55.7472,77.8469 56.6171,75.5059 57.9492,73.4359 L57.9081,73.5189 C58.3461,71.2649 59.3792,69.1749 60.8971,67.4749 C62.5551,65.9669 64.5751,64.9309 66.7532,64.4739 L66.8352,64.4739 C70.0662,62.3409 73.7802,61.0869 77.6222,60.8319 C81.4642,60.5769 85.3072,61.3279 88.7832,63.0159 L88.6602,62.9739 C97.6282,65.5579 104.876,68.1429 111.96,71.1019 L110.486,70.5599 C123.016,75.9509 134.577,81.1609 145.169,86.1909 C157.372,92.1099 167.773,98.3619 177.6,105.324 L176.863,104.824 C182.159,108.187 187.441,111.882 192.71,115.912 C197.979,119.942 203.589,123.985 209.54,128.042 L223.421,128.042 C233.986,128.042 245.205,128.556 257.081,129.584 C269.078,130.543 280.176,132.835 290.74,136.42 L289.759,136.128 C309.456,142.089 326.366,149.133 342.419,157.595 L340.74,156.803 C356.929,165.195 372.284,174.101 386.806,183.522 C410.925,198.82 431.769,214.493 451.382,231.625 L450.687,231.041 C471.16,248.882 489.751,267.181 507.195,286.523 L507.605,287.023 C524.639,305.946 540.897,326.497 555.762,348.046 L557.031,350.006 C570.707,369.681 584.508,392.44 596.915,416.033 L598.634,419.577 C602.289,426.809 605.49,434.27 608.217,441.919 L608.667,443.293 C611.315,451.018 614.278,458.939 617.552,467.052 C624.815,483.865 632.595,500.83 640.894,517.947 C649.191,535.067 656.973,551.71 664.234,567.885 L686.019,616.28 C693.675,633.202 702.234,647.791 712.183,661.255 L711.733,660.631 C720.046,669.676 731.144,676.01 743.591,678.22 L743.92,678.263 C758.987,682.097 771.682,686.431 783.968,691.558 L782.041,690.851 C787.897,693.561 795.432,696.435 803.171,698.979 L804.809,699.439 C813.489,702.147 821.024,705.733 827.944,710.234 L827.575,710.027 C840.966,717.655 852.308,725.156 863.12,733.327 L862.26,732.703 C873.479,741.095 884.7,749.013 895.919,756.462 C901.215,760.491 910.103,766.369 922.576,774.094 C935.052,781.819 941.658,789.044 942.396,795.769 C917.308,794.883 892.189,796.095 867.296,799.396 L869.589,799.146 C848.799,801.892 828.443,807.357 809.025,815.401 L810.663,814.818 C805.517,817.04 800.204,818.838 794.774,820.195 L793.995,820.362 C791.175,820.774 788.573,822.134 786.598,824.227 C784.624,826.318 783.395,829.023 783.102,831.907 L783.102,831.95 C785.6,835.117 787.608,838.787 788.958,842.788 L789.041,843.038 C790.432,847.289 792.111,850.959 794.159,854.376 L794.038,854.126 C798.91,862.92 804.152,870.508 810.048,877.511 L809.884,877.301 C815.659,884.555 822.17,890.849 829.376,896.226 L829.662,896.433 C836.323,901.824 843.257,907.368 850.466,913.065 C857.058,918.318 864.511,923.486 872.249,928.156 L873.233,928.697 C884.864,935.951 898.376,942.869 912.462,948.663 L914.346,949.33 C929.661,955.584 942.806,962.837 955.008,971.465 L954.353,971.005 C962.297,975.701 970.213,980.912 978.103,986.636 C985.993,992.36 993.582,997.905 1000.87,1003.27 C1003.86,1006.27 1006.48,1009.6 1008.69,1013.23 L1008.81,1013.44 C1012.59,1017.87 1017.84,1020.74 1023.56,1021.48 L1023.68,1021.48 L1023.68,1019.48 C1020.06,1016.69 1017.42,1012.79 1016.14,1008.35 L1016.1,1008.19 C1015.17,1004.17 1013.62,1000.33 1011.52,996.807 L1011.6,996.974 L1011.76,997.141 L1011.76,997.133 M251.097,196.606 C245.801,196.606 240.847,196.773 236.234,197.106 C231.733,197.401 227.288,198.283 223.008,199.732 L223.377,199.607 L223.377,200.607 L225.342,200.607 C227.99,204.636 231.32,209.166 235.334,214.196 C239.346,219.226 242.978,224.103 246.226,228.827 L262.074,262.089 L264.039,261.089 C268.652,257.71 272.229,253.071 274.358,247.71 L274.441,247.5 C276.57,241.706 277.799,234.954 277.799,227.951 L277.756,225.7 L277.756,225.825 C275.901,223.987 274.401,221.809 273.334,219.406 L273.294,219.281 L269.977,211.695 C267.853,208.242 264.817,205.468 261.216,203.692 L261.092,203.65 C257.413,201.861 254.038,199.483 251.1,196.605 L251.097,196.606"/>
</g>

<g fill="none" stroke="#000000" stroke-opacity="1" stroke-width="1" stroke-linecap="butt" stroke-linejoin="miter" stroke-miterlimit="4" transform="matrix(0.0410156,0,0,0.0410156,8,8)"
>
<path vector-effect="none" fill-rule="nonzero" d="M1011.76,997.133 L990.956,976.958 C981.037,963.586 969.95,951.156 957.828,939.82 L957.623,939.653 C945.395,928.341 932.687,917.587 919.502,907.39 C908.936,899.998 894.414,891.092 875.932,880.671 C860.936,873.896 848.982,861.639 842.435,846.324 L842.273,845.907 L840.306,844.907 C848.989,844.031 856.931,842.404 864.549,840.113 L863.606,840.363 L886.948,833.819 C896.612,830.733 907.79,828.732 919.378,828.275 L919.623,828.275 C931.825,827.775 943.332,825.772 954.308,822.481 L953.284,822.731 C958.58,821.397 964.026,819.883 969.623,818.187 C975.22,816.491 980.008,814.977 983.995,813.643 L983.995,806.599 C980.037,800.567 975.246,793.678 969.623,785.924 C964.405,778.67 958.311,772.114 951.482,766.416 L951.277,766.249 C934.107,750.799 916.32,735.848 897.922,721.398 C880.674,707.755 862.756,695.012 844.238,683.217 L841.454,681.548 C830.773,674.444 819.464,668.372 807.672,663.416 L806.279,662.916 C794.048,657.86 781.996,652.316 770.122,646.284 C765.843,644.153 761.354,642.488 756.731,641.324 L756.281,641.241 C751.661,640.307 747.482,637.826 744.405,634.197 L744.365,634.157 C738.554,626.306 733.677,617.785 729.829,608.771 L729.5,607.938 C725.542,598.517 721.256,589.473 716.643,580.802 C706.732,561.294 697.151,541.466 687.897,521.32 C678.643,501.174 669.756,480.998 661.24,460.797 C655.315,447.347 649.869,433.911 644.901,420.49 C639.876,406.807 633.554,393.656 626.024,381.223 L626.555,382.183 C610.238,353.704 592.027,326.394 572.052,300.442 L573.2,302.026 C554.923,278.46 534.952,256.308 513.456,235.749 L513.13,235.457 C491.988,215.267 469.672,196.392 446.301,178.935 L444.293,177.476 C419.834,159.385 393.081,141.573 364.035,124.038 C351.687,116.708 338.385,111.192 324.518,107.657 L323.454,107.407 L277.879,95.819 L252.122,93.818 C243.551,93.151 234.965,92.818 226.366,92.818 C220.567,89.729 215.231,85.813 210.519,81.188 C205.965,76.778 201.136,72.671 196.064,68.891 L195.654,68.599 C169.055,52.974 141.04,39.993 111.996,29.833 L108.515,28.749 C101.292,24.543 93.2321,22.044 84.9321,21.437 C76.6321,20.83 68.3041,22.133 60.5651,25.247 L60.9341,25.122 C53.3131,28.164 46.4451,32.879 40.8181,38.931 C35.1911,44.983 30.9441,52.223 28.3791,60.136 L28.2561,60.553 C23.9111,71.175 22.4991,82.804 24.1731,94.183 C25.8471,105.562 30.5441,116.26 37.7561,125.12 L37.6741,124.995 C52.5251,145.142 63.9081,160.982 71.8251,172.514 C77.7491,180.601 83.8641,189.007 90.1701,197.732 C95.9441,205.568 101.062,214.53 105.198,223.993 L105.526,224.868 C107.819,229.828 109.826,235.747 111.3,241.834 L111.423,242.501 C112.733,248.223 114.385,254.448 116.378,261.174 C122.302,276.624 127.912,292.466 133.208,308.695 C138.982,326.41 145.37,341.415 152.781,355.713 L152.003,354.046 C155.961,361.438 159.934,368.663 163.919,375.721 C167.904,382.779 172.191,389.669 176.777,396.394 C179.378,400.39 182.732,403.819 186.646,406.482 L186.769,406.565 C188.82,408.063 190.509,410.016 191.708,412.276 C192.907,414.538 193.585,417.046 193.69,419.613 L193.69,419.656 C188.859,426.96 185.812,435.335 184.804,444.082 L184.763,444.332 C183.478,454.15 181.382,463.84 178.498,473.302 L178.826,472.052 C169.193,502.072 164.341,533.466 164.453,565.048 C164.453,575.8 164.985,586.388 166.091,596.852 L165.968,595.559 C168.425,635.493 180.259,672.173 199.218,703.936 L198.645,702.893 C206.712,715.191 215.352,725.902 224.893,735.699 C230.436,742.045 237.903,746.325 246.108,747.858 C254.314,749.392 262.787,748.089 270.182,744.16 L269.977,744.243 C277.074,741.697 283.265,737.061 287.764,730.921 C292.265,724.782 294.868,717.421 295.244,709.769 L295.244,709.688 C297.209,689.93 300.157,672.255 304.212,654.999 L303.679,657.79 C304.717,654.98 305.244,651.998 305.234,648.996 L305.153,647.119 L305.153,647.202 C304.827,644.173 306.641,641.313 310.599,638.617 L310.599,640.617 C314.557,650.038 318.679,659.444 322.966,668.837 C327.253,678.23 331.701,687.636 336.316,697.057 C348.394,715.772 361.211,732.114 375.297,747.159 L375.176,747.035 C389.188,762.438 404.646,776.412 421.325,788.759 L422.225,789.385 C430.908,796.136 438.523,803.43 445.403,811.394 L445.565,811.561 C452.035,819.312 459.775,825.69 468.498,830.484 L468.908,830.694 L468.908,829.694 L470.873,829.694 C469.32,826.153 466.751,823.174 463.503,821.147 L463.422,821.107 C460.417,819.421 457.53,817.528 454.78,815.437 L454.985,815.563 C449.062,809.533 442.947,802.808 436.641,795.388 C430.335,787.97 424.56,780.911 419.319,774.213 C405.452,754.707 392.226,734.322 379.64,713.064 C367.057,691.805 355.166,670.201 343.974,648.247 C338.678,637.493 333.56,626.405 328.619,614.984 C323.678,603.563 318.886,592.475 314.245,581.721 C312.145,577.351 310.813,572.638 310.316,567.799 L310.316,567.589 C310.204,565.3 309.513,563.079 308.306,561.143 C307.101,559.207 305.422,557.623 303.436,556.545 L303.353,556.502 C298.666,564.706 293.061,572.331 286.648,579.221 L286.688,579.178 C280.111,586.234 274.814,594.419 271.045,603.354 L270.84,603.897 C264.713,619.29 260.729,635.481 259.007,651.999 L258.926,652.792 C256.959,670.605 254.98,688.918 252.987,707.731 L251.022,708.731 L250.038,709.731 C244.913,708.686 240.081,706.483 235.902,703.287 C231.723,700.091 228.297,695.983 225.88,691.266 L225.798,691.056 C220.829,681.302 216.38,671.717 212.449,662.296 C201.722,633.726 195.864,603.502 195.128,572.927 L195.128,572.551 C193.001,539.881 196.975,507.094 206.839,475.931 L206.348,477.765 C208.313,470.373 212.599,457.923 219.206,440.415 C225.812,422.909 227.137,410.807 223.178,404.111 C221.225,397.481 217.461,391.554 212.327,387.02 L212.286,386.98 C207.392,382.665 202.807,377.997 198.568,373.015 L198.445,372.848 C193.832,366.068 189.382,358.843 185.096,351.173 C180.81,343.503 177.016,335.944 173.712,328.497 C166.087,310.129 159.604,291.295 154.302,272.098 L153.401,268.388 C147.574,246.941 140.099,225.993 131.043,205.739 L132.108,208.407 C127.871,198.509 122.512,189.15 116.138,180.521 L116.384,180.854 C109.723,171.795 103.772,163.222 98.5302,155.135 C91.8691,146.409 85.2632,138.003 78.7112,129.917 C71.8841,121.499 66.0312,112.31 61.2672,102.531 L60.8982,101.697 C58.8032,97.3429 57.1692,92.7729 56.0252,88.0669 L55.9431,87.6089 C55.2402,85.2409 55.0551,82.7449 55.4011,80.2959 C55.7472,77.8469 56.6171,75.5059 57.9492,73.4359 L57.9081,73.5189 C58.3461,71.2649 59.3792,69.1749 60.8971,67.4749 C62.5551,65.9669 64.5751,64.9309 66.7532,64.4739 L66.8352,64.4739 C70.0662,62.3409 73.7802,61.0869 77.6222,60.8319 C81.4642,60.5769 85.3072,61.3279 88.7832,63.0159 L88.6602,62.9739 C97.6282,65.5579 104.876,68.1429 111.96,71.1019 L110.486,70.5599 C123.016,75.9509 134.577,81.1609 145.169,86.1909 C157.372,92.1099 167.773,98.3619 177.6,105.324 L176.863,104.824 C182.159,108.187 187.441,111.882 192.71,115.912 C197.979,119.942 203.589,123.985 209.54,128.042 L223.421,128.042 C233.986,128.042 245.205,128.556 257.081,129.584 C269.078,130.543 280.176,132.835 290.74,136.42 L289.759,136.128 C309.456,142.089 326.366,149.133 342.419,157.595 L340.74,156.803 C356.929,165.195 372.284,174.101 386.806,183.522 C410.925,198.82 431.769,214.493 451.382,231.625 L450.687,231.041 C471.16,248.882 489.751,267.181 507.195,286.523 L507.605,287.023 C524.639,305.946 540.897,326.497 555.762,348.046 L557.031,350.006 C570.707,369.681 584.508,392.44 596.915,416.033 L598.634,419.577 C602.289,426.809 605.49,434.27 608.217,441.919 L608.667,443.293 C611.315,451.018 614.278,458.939 617.552,467.052 C624.815,483.865 632.595,500.83 640.894,517.947 C649.191,535.067 656.973,551.71 664.234,567.885 L686.019,616.28 C693.675,633.202 702.234,647.791 712.183,661.255 L711.733,660.631 C720.046,669.676 731.144,676.01 743.591,678.22 L743.92,678.263 C758.987,682.097 771.682,686.431 783.968,691.558 L782.041,690.851 C787.897,693.561 795.432,696.435 803.171,698.979 L804.809,699.439 C813.489,702.147 821.024,705.733 827.944,710.234 L827.575,710.027 C840.966,717.655 852.308,725.156 863.12,733.327 L862.26,732.703 C873.479,741.095 884.7,749.013 895.919,756.462 C901.215,760.491 910.103,766.369 922.576,774.094 C935.052,781.819 941.658,789.044 942.396,795.769 C917.308,794.883 892.189,796.095 867.296,799.396 L869.589,799.146 C848.799,801.892 828.443,807.357 809.025,815.401 L810.663,814.818 C805.517,817.04 800.204,818.838 794.774,820.195 L793.995,820.362 C791.175,820.774 788.573,822.134 786.598,824.227 C784.624,826.318 783.395,829.023 783.102,831.907 L783.102,831.95 C785.6,835.117 787.608,838.787 788.958,842.788 L789.041,843.038 C790.432,847.289 792.111,850.959 794.159,854.376 L794.038,854.126 C798.91,862.92 804.152,870.508 810.048,877.511 L809.884,877.301 C815.659,884.555 822.17,890.849 829.376,896.226 L829.662,896.433 C836.323,901.824 843.257,907.368 850.466,913.065 C857.058,918.318 864.511,923.486 872.249,928.156 L873.233,928.697 C884.864,935.951 898.376,942.869 912.462,948.663 L914.346,949.33 C929.661,955.584 942.806,962.837 955.008,971.465 L954.353,971.005 C962.297,975.701 970.213,980.912 978.103,986.636 C985.993,992.36 993.582,997.905 1000.87,1003.27 C1003.86,1006.27 1006.48,1009.6 1008.69,1013.23 L1008.81,1013.44 C1012.59,1017.87 1017.84,1020.74 1023.56,1021.48 L1023.68,1021.48 L1023.68,1019.48 C1020.06,1016.69 1017.42,1012.79 1016.14,1008.35 L1016.1,1008.19 C1015.17,1004.17 1013.62,1000.33 1011.52,996.807 L1011.6,996.974 L1011.76,997.141 L1011.76,997.133 M251.097,196.606 C245.801,196.606 240.847,196.773 236.234,197.106 C231.733,197.401 227.288,198.283 223.008,199.732 L223.377,199.607 L223.377,200.607 L225.342,200.607 C227.99,204.636 231.32,209.166 235.334,214.196 C239.346,219.226 242.978,224.103 246.226,228.827 L262.074,262.089 L264.039,261.089 C268.652,257.71 272.229,253.071 274.358,247.71 L274.441,247.5 C276.57,241.706 277.799,234.954 277.799,227.951 L277.756,225.7 L277.756,225.825 C275.901,223.987 274.401,221.809 273.334,219.406 L273.294,219.281 L269.977,211.695 C267.853,208.242 264.817,205.468 261.216,203.692 L261.092,203.65 C257.413,201.861 254.038,199.483 251.1,196.605 L251.097,196.606"/>
</g>

<g fill="#000000" fill-opacity="1" stroke="#000000" stroke-opacity="1" stroke-width="1" stroke-linecap="square" stroke-linejoin="miter" stroke-miterlimit="2" transform="matrix(0.0410156,0,0,0.0410156,8,8)"
>
</g>

<g fill="#000000" fill-opacity="1" stroke="#000000" stroke-opacity="1" stroke-width="1" stroke-linecap="square" stroke-linejoin="miter" stroke-miterlimit="2" transform="matrix(0.0410156,0,0,0.0410156,8,8)"
>
</g>

<g fill="#000000" fill-opacity="1" stroke="#000000" stroke-opacity="1" stroke-width="1" stroke-linecap="square" stroke-linejoin="miter" stroke-miterlimit="2" transform="matrix(1,0,0,1,0,0)"
>
</g>

<g fill="#000000" fill-opacity="1" stroke="#000000" stroke-opacity="1" stroke-width="1" stroke-linecap="square" stroke-linejoin="miter" stroke-miterlimit="2" transform="matrix(1,0,0,1,0,0)"
>
</g>

<g fill="#000000" fill-opacity="1" stroke="#000000" stroke-opacity="1" stroke-width="1" stroke-linecap="square" stroke-linejoin="miter" stroke-miterlimit="2" transform="matrix(1,0,0,1,0,0)"
>
</g>

<g fill="#000000" fill-opacity="1" stroke="#000000" stroke-opacity="1" stroke-width="1" stroke-linecap="square" stroke-linejoin="miter" stroke-miterlimit="2" transform="matrix(1,0,0,1,0,0)"
>
</g>

<g fill="#000000" fill-opacity="1" stroke="#000000" stroke-opacity="1" stroke-width="1" stroke-linecap="square" stroke-linejoin="miter" stroke-miterlimit="2" transform="matrix(0.0410156,0,0,0.0410156,8,8)"
>
</g>

<g fill="#000000" fill-opacity="1" stroke="#000000" stroke-opacity="1" stroke-width="1" stroke-linecap="square" stroke-linejoin="miter" stroke-miterlimit="2" transform="matrix(1,0,0,1,0,0)"
>
</g>

<g fill="#000000" fill-opacity="1" stroke="#000000" stroke-opacity="1" stroke-width="1" stroke-linecap="square" stroke-linejoin="miter" stroke-miterlimit="2" transform="matrix(1,0,0,1,0,0)"
>
</g>

<g fill="#000000" fill-opacity="1" stroke="#000000" stroke-opacity="1" stroke-width="1" stroke-linecap="square" stroke-linejoin="miter" stroke-miterlimit="2" transform="matrix(1,0,0,1,0,0)"
>
</g>

<g fill="#000000" fill-opacity="1" stroke="#000000" stroke-opacity="1" stroke-width="1" stroke-linecap="square" stroke-linejoin="miter" stroke-miterlimit="2" transform="matrix(1,0,0,1,0,0)"
>
</g>

<g fill="#000000" fill-opacity="1" stroke="#000000" stroke-opacity="1" stroke-width="1" stroke-linecap="square" stroke-linejoin="miter" stroke-miterlimit="2" transform="matrix(1,0,0,1,0,0)"
>
</g>

<g fill="#000000" fill-opacity="1" stroke="#000000" stroke-opacity="1" stroke-width="1" stroke-linecap="square" stroke-linejoin="miter" stroke-miterlimit="2" transform="matrix(1,0,0,1,0,0)"
>
</g>
</g>
</svg>
