<?xml version="1.0" encoding="UTF-8" standalone="no"?>
<svg width="270.933mm" height="15.3458mm"
 xmlns="http://www.w3.org/2000/svg" xmlns:xlink="http://www.w3.org/1999/xlink"  version="1.2" baseProfile="tiny">
<desc>Created by EvoPdf</desc>
<defs>
</defs>
<g fill="none" stroke="black" stroke-width="1" fill-rule="evenodd" stroke-linecap="square" stroke-linejoin="bevel" >

<g fill="#000000" fill-opacity="1" stroke="#000000" stroke-opacity="1" stroke-width="1" stroke-linecap="square" stroke-linejoin="miter" stroke-miterlimit="2" transform="matrix(1,0,0,1,0,0)"
>
</g>

<g fill="#000000" fill-opacity="1" stroke="#000000" stroke-opacity="1" stroke-width="1" stroke-linecap="square" stroke-linejoin="miter" stroke-miterlimit="2" transform="matrix(1,0,0,1,0,0)"
>
</g>

<g fill="#000000" fill-opacity="1" stroke="#000000" stroke-opacity="1" stroke-width="1" stroke-linecap="square" stroke-linejoin="miter" stroke-miterlimit="2" transform="matrix(1,0,0,1,0,0)"
>
</g>

<g fill="#000000" fill-opacity="1" stroke="#000000" stroke-opacity="1" stroke-width="1" stroke-linecap="square" stroke-linejoin="miter" stroke-miterlimit="2" transform="matrix(1,0,0,1,0,0)"
>
</g>

<g fill="#000000" fill-opacity="1" stroke="#000000" stroke-opacity="1" stroke-width="1" stroke-linecap="square" stroke-linejoin="miter" stroke-miterlimit="2" transform="matrix(0.0410156,0,0,0.0410156,8,8)"
>
</g>

<g fill="#000000" fill-opacity="1" stroke="none" transform="matrix(0.0410156,0,0,0.0410156,8,8)"
>
<path vector-effect="none" fill-rule="nonzero" d="M523.581,21.291 C798.632,21.291 1023.67,246.332 1023.67,521.383 C1023.67,796.434 798.632,1021.48 523.581,1021.48 C248.53,1021.48 23.4889,796.434 23.4889,521.383 C23.4889,246.332 248.53,21.2909 523.581,21.2909 L523.581,21.291 M423.562,687.04 C429.813,715.169 429.813,740.174 423.562,762.054 L420.438,771.43 C420.438,774.557 417.311,777.681 417.311,777.681 C411.06,790.183 404.809,799.561 395.433,812.064 C367.302,843.32 326.67,855.822 307.917,846.444 C289.164,837.068 298.539,790.184 332.922,755.803 C370.429,718.296 420.438,693.291 420.438,693.291 L423.562,687.04 L423.562,687.04 M836.139,233.83 C814.261,146.314 667.358,115.058 526.708,165.067 C445.443,196.323 354.8,243.207 289.164,302.592 C211.024,374.482 201.647,436.993 204.773,461.998 C223.526,552.639 348.549,615.15 401.685,658.908 C386.056,665.159 273.535,721.42 248.53,780.807 C220.4,843.319 251.657,887.077 273.535,890.201 C339.173,908.954 407.936,874.574 442.316,821.438 C476.699,768.304 473.572,702.666 457.945,668.286 C482.259,660.777 508.104,659.701 532.959,665.159 C620.475,674.537 639.229,730.797 632.978,752.675 C626.727,774.555 611.098,787.058 604.847,793.309 C598.596,796.433 595.471,799.56 598.596,799.56 C598.596,802.684 601.723,802.684 607.974,802.684 C614.225,802.684 654.857,783.931 654.857,740.172 C657.984,687.038 604.848,627.651 514.207,627.651 C476.7,627.651 451.695,630.778 436.066,637.029 C436.066,633.902 432.942,633.902 432.942,633.902 C376.682,574.517 273.536,530.759 276.663,449.494 C276.663,421.363 289.165,343.224 476.7,249.457 C629.852,171.317 754.876,193.196 776.756,240.079 C808.012,305.717 711.118,430.741 551.714,449.494 C489.202,455.745 457.947,433.865 451.695,424.489 C442.317,415.111 442.317,415.111 439.193,415.111 C432.942,418.238 436.066,424.489 439.193,430.74 C445.444,443.242 464.198,465.12 498.578,477.623 C526.709,487.001 598.597,493.252 686.113,458.87 C783.007,421.363 858.021,318.22 836.141,230.704 L836.141,233.83 L836.139,233.83"/>
</g>

<g fill="none" stroke="#000000" stroke-opacity="1" stroke-width="1" stroke-linecap="butt" stroke-linejoin="miter" stroke-miterlimit="4" transform="matrix(0.0410156,0,0,0.0410156,8,8)"
>
<path vector-effect="none" fill-rule="nonzero" d="M523.581,21.291 C798.632,21.291 1023.67,246.332 1023.67,521.383 C1023.67,796.434 798.632,1021.48 523.581,1021.48 C248.53,1021.48 23.4889,796.434 23.4889,521.383 C23.4889,246.332 248.53,21.2909 523.581,21.2909 L523.581,21.291 M423.562,687.04 C429.813,715.169 429.813,740.174 423.562,762.054 L420.438,771.43 C420.438,774.557 417.311,777.681 417.311,777.681 C411.06,790.183 404.809,799.561 395.433,812.064 C367.302,843.32 326.67,855.822 307.917,846.444 C289.164,837.068 298.539,790.184 332.922,755.803 C370.429,718.296 420.438,693.291 420.438,693.291 L423.562,687.04 L423.562,687.04 M836.139,233.83 C814.261,146.314 667.358,115.058 526.708,165.067 C445.443,196.323 354.8,243.207 289.164,302.592 C211.024,374.482 201.647,436.993 204.773,461.998 C223.526,552.639 348.549,615.15 401.685,658.908 C386.056,665.159 273.535,721.42 248.53,780.807 C220.4,843.319 251.657,887.077 273.535,890.201 C339.173,908.954 407.936,874.574 442.316,821.438 C476.699,768.304 473.572,702.666 457.945,668.286 C482.259,660.777 508.104,659.701 532.959,665.159 C620.475,674.537 639.229,730.797 632.978,752.675 C626.727,774.555 611.098,787.058 604.847,793.309 C598.596,796.433 595.471,799.56 598.596,799.56 C598.596,802.684 601.723,802.684 607.974,802.684 C614.225,802.684 654.857,783.931 654.857,740.172 C657.984,687.038 604.848,627.651 514.207,627.651 C476.7,627.651 451.695,630.778 436.066,637.029 C436.066,633.902 432.942,633.902 432.942,633.902 C376.682,574.517 273.536,530.759 276.663,449.494 C276.663,421.363 289.165,343.224 476.7,249.457 C629.852,171.317 754.876,193.196 776.756,240.079 C808.012,305.717 711.118,430.741 551.714,449.494 C489.202,455.745 457.947,433.865 451.695,424.489 C442.317,415.111 442.317,415.111 439.193,415.111 C432.942,418.238 436.066,424.489 439.193,430.74 C445.444,443.242 464.198,465.12 498.578,477.623 C526.709,487.001 598.597,493.252 686.113,458.87 C783.007,421.363 858.021,318.22 836.141,230.704 L836.141,233.83 L836.139,233.83"/>
</g>

<g fill="#000000" fill-opacity="1" stroke="#000000" stroke-opacity="1" stroke-width="1" stroke-linecap="square" stroke-linejoin="miter" stroke-miterlimit="2" transform="matrix(0.0410156,0,0,0.0410156,8,8)"
>
</g>

<g fill="#000000" fill-opacity="1" stroke="#000000" stroke-opacity="1" stroke-width="1" stroke-linecap="square" stroke-linejoin="miter" stroke-miterlimit="2" transform="matrix(0.0410156,0,0,0.0410156,8,8)"
>
</g>

<g fill="#000000" fill-opacity="1" stroke="#000000" stroke-opacity="1" stroke-width="1" stroke-linecap="square" stroke-linejoin="miter" stroke-miterlimit="2" transform="matrix(1,0,0,1,0,0)"
>
</g>

<g fill="#000000" fill-opacity="1" stroke="#000000" stroke-opacity="1" stroke-width="1" stroke-linecap="square" stroke-linejoin="miter" stroke-miterlimit="2" transform="matrix(1,0,0,1,0,0)"
>
</g>

<g fill="#000000" fill-opacity="1" stroke="#000000" stroke-opacity="1" stroke-width="1" stroke-linecap="square" stroke-linejoin="miter" stroke-miterlimit="2" transform="matrix(1,0,0,1,0,0)"
>
</g>

<g fill="#000000" fill-opacity="1" stroke="#000000" stroke-opacity="1" stroke-width="1" stroke-linecap="square" stroke-linejoin="miter" stroke-miterlimit="2" transform="matrix(1,0,0,1,0,0)"
>
</g>

<g fill="#000000" fill-opacity="1" stroke="#000000" stroke-opacity="1" stroke-width="1" stroke-linecap="square" stroke-linejoin="miter" stroke-miterlimit="2" transform="matrix(0.0410156,0,0,0.0410156,8,8)"
>
</g>

<g fill="#000000" fill-opacity="1" stroke="#000000" stroke-opacity="1" stroke-width="1" stroke-linecap="square" stroke-linejoin="miter" stroke-miterlimit="2" transform="matrix(1,0,0,1,0,0)"
>
</g>

<g fill="#000000" fill-opacity="1" stroke="#000000" stroke-opacity="1" stroke-width="1" stroke-linecap="square" stroke-linejoin="miter" stroke-miterlimit="2" transform="matrix(1,0,0,1,0,0)"
>
</g>

<g fill="#000000" fill-opacity="1" stroke="#000000" stroke-opacity="1" stroke-width="1" stroke-linecap="square" stroke-linejoin="miter" stroke-miterlimit="2" transform="matrix(1,0,0,1,0,0)"
>
</g>

<g fill="#000000" fill-opacity="1" stroke="#000000" stroke-opacity="1" stroke-width="1" stroke-linecap="square" stroke-linejoin="miter" stroke-miterlimit="2" transform="matrix(1,0,0,1,0,0)"
>
</g>

<g fill="#000000" fill-opacity="1" stroke="#000000" stroke-opacity="1" stroke-width="1" stroke-linecap="square" stroke-linejoin="miter" stroke-miterlimit="2" transform="matrix(1,0,0,1,0,0)"
>
</g>

<g fill="#000000" fill-opacity="1" stroke="#000000" stroke-opacity="1" stroke-width="1" stroke-linecap="square" stroke-linejoin="miter" stroke-miterlimit="2" transform="matrix(1,0,0,1,0,0)"
>
</g>
</g>
</svg>
